<?xml version="1.0" encoding="utf-8"?>
<!-- Generator: Adobe Illustrator 16.0.4, SVG Export Plug-In . SVG Version: 6.00 Build 0)  -->
<!DOCTYPE svg PUBLIC "-//W3C//DTD SVG 1.1//EN" "http://www.w3.org/Graphics/SVG/1.1/DTD/svg11.dtd">
<svg version="1.1" xmlns="http://www.w3.org/2000/svg" xmlns:xlink="http://www.w3.org/1999/xlink" x="0px" y="0px" width="229.5px"
	 height="78.588px" viewBox="0 0 229.5 78.588" enable-background="new 0 0 229.5 78.588" xml:space="preserve">
<g id="Black_Blackground">
</g>
<g id="SemiBold">
	<path d="M229.5,67.281c0,6.973-5.121,11.307-12.088,11.307H12.619c-6.969,0-12.621-5.654-12.621-12.627V12.625
		C-0.001,5.653,5.65,0,12.619,0h204.793c6.967,0,12.088,5.653,12.088,12.625V67.281z"/>
	<g>
		<g>
			<path fill="#FFFFFF" d="M156.838,56.41l-1.721,1.625c-0.398,0.219-0.795,0.473-1.189,0.654c-1.197,0.543-2.416,0.68-3.498,0.68
				c-1.15,0-2.955-0.074-4.793-1.406c-2.559-1.801-3.676-4.896-3.676-7.596c0-5.586,4.547-8.325,8.254-8.325
				c1.297,0,2.631,0.324,3.713,1.009c1.799,1.19,2.264,2.737,2.523,3.566l-8.471,3.422l-2.773,0.217
				c0.898,4.578,3.996,7.242,7.422,7.242c1.709,0,2.979-0.557,4.143-1.133C156.771,56.365,157.006,56.244,156.838,56.41z
				 M151.73,47.299c0.688-0.25,1.043-0.466,1.043-0.967c0-1.439-1.629-3.101-3.57-3.101c-1.439,0-4.141,1.121-4.141,5.013
				c0,0.608,0.07,1.254,0.109,1.903L151.73,47.299z"/>
			<path fill="#FFFFFF" d="M139.131,56.131c0,1.4,0.25,1.617,1.432,1.727c0.617,0.074,1.232,0.105,1.842,0.178l-1.332,0.795h-6.35
				c0.834-1.082,0.975-1.189,0.975-1.908v-0.805l-0.012-21.421h-2.805l2.699-1.3h5.152c-1.115,0.646-1.449,1.041-1.594,2.301
				L139.131,56.131z"/>
			<path fill="#FFFFFF" d="M129.285,43.811c0.824,0.68,2.551,2.123,2.551,4.86c0,2.669-1.502,3.927-3.021,5.117
				c-0.465,0.469-1.01,0.979-1.01,1.764c0,0.797,0.545,1.229,0.938,1.553l1.301,1.004c1.584,1.336,3.025,2.561,3.025,5.047
				c0,3.391-3.279,6.807-9.477,6.807c-5.221,0-7.746-2.486-7.746-5.15c0-1.299,0.646-3.137,2.777-4.395
				c2.232-1.365,5.26-1.549,6.881-1.654c-0.508-0.654-1.086-1.338-1.086-2.455c0-0.611,0.186-0.975,0.361-1.404
				c-0.395,0.037-0.789,0.076-1.15,0.076c-3.822,0-5.982-2.85-5.982-5.662c0-1.656,0.758-3.494,2.309-4.827
				c2.053-1.691,4.504-1.983,6.449-1.983h7.426l-2.309,1.303H129.285z M126.73,59.805c-0.295-0.039-0.473-0.039-0.828-0.039
				c-0.328,0-2.273,0.072-3.781,0.578c-0.799,0.291-3.102,1.152-3.102,3.711c0,2.555,2.486,4.396,6.338,4.396
				c3.457,0,5.295-1.658,5.295-3.891C130.652,62.723,129.463,61.754,126.73,59.805z M127.766,52.959
				c0.834-0.83,0.906-1.98,0.906-2.633c0-2.591-1.547-6.627-4.541-6.627c-0.934,0-1.945,0.469-2.521,1.194
				c-0.607,0.751-0.789,1.725-0.789,2.661c0,2.413,1.404,6.415,4.502,6.415C126.225,53.969,127.197,53.529,127.766,52.959z"/>
			<path fill="#FFFFFF" d="M106.945,59.295c-5.727,0-8.791-4.461-8.791-8.496c0-4.72,3.852-8.756,9.331-8.756
				c5.298,0,8.614,4.146,8.614,8.5C116.1,54.795,112.822,59.295,106.945,59.295z M111.45,56.381
				c0.872-1.154,1.085-2.594,1.085-3.996c0-3.173-1.514-9.225-5.981-9.225c-1.188,0-2.386,0.463-3.248,1.223
				c-1.408,1.261-1.658,2.844-1.658,4.399c0,3.56,1.759,9.431,6.125,9.431C109.183,58.213,110.621,57.531,111.45,56.381z"/>
			<path fill="#FFFFFF" d="M87.771,59.295c-5.728,0-8.788-4.461-8.788-8.496c0-4.72,3.854-8.756,9.331-8.756
				c5.293,0,8.606,4.146,8.606,8.5C96.921,54.795,93.648,59.295,87.771,59.295z M92.278,56.381c0.864-1.154,1.08-2.594,1.08-3.996
				c0-3.173-1.516-9.225-5.979-9.225c-1.193,0-2.376,0.463-3.242,1.223c-1.41,1.261-1.659,2.844-1.659,4.399
				c0,3.56,1.766,9.431,6.125,9.431C90.01,58.213,91.446,57.531,92.278,56.381z"/>
			<path fill="#FFFFFF" d="M76.695,58.045l-4.831,1.105c-1.957,0.309-3.714,0.58-5.575,0.58c-9.317,0-12.866-6.857-12.866-12.225
				c0-6.555,5.03-12.631,13.643-12.631c1.822,0,3.576,0.268,5.173,0.703c2.532,0.712,3.715,1.588,4.456,2.102l-2.806,2.665
				l-1.184,0.265l0.844-1.345c-1.143-1.116-3.243-3.175-7.228-3.175c-5.329,0-9.349,4.051-9.349,9.964
				c0,6.353,4.591,12.326,11.952,12.326c2.163,0,3.276-0.434,4.287-0.84v-5.443l-5.099,0.273l2.703-1.453h7.157l-0.875,0.844
				c-0.237,0.201-0.268,0.268-0.335,0.537c-0.035,0.309-0.067,1.285-0.067,1.629V58.045z"/>
		</g>
		<g>
			<path fill="#FFFFFF" d="M167.225,56.562v9.178h-1.822V42.39h1.822v2.659c1.188-1.718,3.355-3.081,5.877-3.081
				c4.52,0,7.562,3.428,7.562,8.855c0,5.391-3.043,8.891-7.562,8.891C170.723,59.713,168.592,58.486,167.225,56.562z
				 M178.707,50.822c0-4.09-2.133-7.21-5.914-7.21c-2.348,0-4.592,1.845-5.568,3.454v7.475c0.977,1.611,3.221,3.525,5.568,3.525
				C176.574,58.066,178.707,54.92,178.707,50.822z"/>
			<path fill="#FFFFFF" d="M183.152,59.293V35.942h1.822v23.351H183.152z"/>
			<path fill="#FFFFFF" d="M205.426,64.23c0.387,0.174,1.053,0.281,1.477,0.281c1.113,0,1.889-0.457,2.588-2.066l1.328-3.012
				l-7.18-17.044h2.033l6.16,14.771l6.096-14.771h2.062l-8.756,20.62c-0.908,2.125-2.338,3.146-4.301,3.146
				c-0.592,0-1.367-0.104-1.822-0.244L205.426,64.23z"/>
			<path fill="#FFFFFF" d="M200.102,59.242c-0.123-0.586-0.215-1.102-0.281-1.533c-0.057-0.432-0.088-0.871-0.088-1.318
				c-0.625,0.918-1.51,1.68-2.641,2.281c-1.131,0.605-2.205,0.902-3.682,0.902c-1.775,0-3.154-0.438-4.137-1.322
				c-0.98-0.887-1.473-2.084-1.473-3.602c0-1.516,0.713-2.746,2.137-3.686c1.426-0.945,3.266-1.414,5.545-1.414h4.25v-2.102
				c0-1.209-0.412-2.16-1.234-2.851c-0.828-0.69-1.988-1.039-3.492-1.039c-1.373,0-2.486,0.319-3.336,0.94
				c-0.842,0.634-1.266,1.42-1.266,2.367h-1.863l-0.041-0.09c-0.066-1.276,0.52-2.397,1.76-3.364
				c1.236-0.967,2.855-1.452,4.85-1.452c1.986,0,3.596,0.479,4.807,1.433c1.211,0.944,1.818,2.311,1.818,4.095v8.34
				c0,0.598,0.029,1.176,0.104,1.74c0.078,0.566,0.199,1.129,0.363,1.674H200.102z M193.633,57.914c1.549,0,2.66-0.346,3.799-1.029
				c1.129-0.682,1.898-1.568,2.301-2.643v-3.246h-4.27c-1.631,0-2.982,0.361-4.045,1.09c-1.064,0.727-1.605,1.605-1.605,2.627
				c0,0.963,0.342,1.734,1.021,2.318C191.516,57.621,192.447,57.914,193.633,57.914z"/>
		</g>
	</g>
	<g>
		<polygon fill="none" points="29.625,49.871 35.471,44.024 35.469,44.024 29.625,49.871 10.965,31.212 10.964,31.212 
			29.625,49.873 10.935,68.564 10.935,68.564 29.625,49.873 35.497,55.746 35.5,55.746 		"/>
		
			<linearGradient id="SVGID_1_" gradientUnits="userSpaceOnUse" x1="512.2422" y1="-432.6904" x2="487.6035" y2="-448.1104" gradientTransform="matrix(0.7071 0.7071 -0.7071 0.7071 -642.4706 -7.8795)">
			<stop  offset="0" style="stop-color:#D6FFA1"/>
			<stop  offset="0.3264" style="stop-color:#93E2A7"/>
			<stop  offset="1" style="stop-color:#00A3B5"/>
		</linearGradient>
		<path fill="url(#SVGID_1_)" d="M35.469,44.024l-22.78-12.526c-0.646-0.354-1.242-0.436-1.724-0.286l18.66,18.659L35.469,44.024z"
			/>
		
			<linearGradient id="SVGID_2_" gradientUnits="userSpaceOnUse" x1="497.916" y1="-445.8633" x2="529.8613" y2="-437.5124" gradientTransform="matrix(0.7071 0.7071 -0.7071 0.7071 -642.4706 -7.8795)">
			<stop  offset="0" style="stop-color:#FF177B"/>
			<stop  offset="0.6721" style="stop-color:#FFA976"/>
			<stop  offset="1" style="stop-color:#FFEC73"/>
		</linearGradient>
		<path fill="url(#SVGID_2_)" d="M35.5,55.746l7.776-4.275c1.577-0.871,1.577-2.288,0-3.155l-7.806-4.292l-5.846,5.847L35.5,55.746z
			"/>
		
			<linearGradient id="SVGID_3_" gradientUnits="userSpaceOnUse" x1="515.749" y1="-420.9961" x2="481.1093" y2="-441.376" gradientTransform="matrix(0.7071 0.7071 -0.7071 0.7071 -642.4706 -7.8795)">
			<stop  offset="0" style="stop-color:#63FFD4"/>
			<stop  offset="0.4854" style="stop-color:#32A0BA"/>
			<stop  offset="0.8349" style="stop-color:#1262A9"/>
			<stop  offset="1" style="stop-color:#064AA2"/>
		</linearGradient>
		<path fill="url(#SVGID_3_)" d="M10.964,31.212c-0.692,0.217-1.142,0.918-1.142,1.98l0.005,33.401c0,1.049,0.435,1.74,1.108,1.971
			l18.69-18.691L10.964,31.212z"/>
		
			<linearGradient id="SVGID_4_" gradientUnits="userSpaceOnUse" x1="528.3252" y1="-437.1758" x2="506.9974" y2="-409.0774" gradientTransform="matrix(0.7071 0.7071 -0.7071 0.7071 -642.4706 -7.8795)">
			<stop  offset="0" style="stop-color:#FF4521"/>
			<stop  offset="0.3411" style="stop-color:#D43E65"/>
			<stop  offset="0.7935" style="stop-color:#9F36B9"/>
			<stop  offset="1" style="stop-color:#8A33DB"/>
		</linearGradient>
		<path fill="url(#SVGID_4_)" d="M10.935,68.564c0.484,0.164,1.093,0.088,1.754-0.275l22.808-12.543l-5.872-5.873L10.935,68.564z"/>
	</g>
	<g>
		<g>
			<path fill="#FFFFFF" d="M63.565,22.477l-0.838-2.204h-5.229l-0.837,2.204h-2.273l4.478-11.399h2.495l4.479,11.399H63.565z
				 M60.113,13.078l-2.051,5.435h4.102L60.113,13.078z"/>
			<path fill="#FFFFFF" d="M75.436,22.477l-5.947-8.151v8.151H67.49V11.078h2.051l5.827,7.896v-7.896h2v11.399H75.436z"/>
			<path fill="#FFFFFF" d="M80.216,22.477V11.078h4.238c3.571,0,5.964,2.358,5.964,5.691c0,3.366-2.393,5.708-5.948,5.708H80.216z
				 M88.367,16.77c0-2.187-1.367-3.93-3.896-3.93h-2.256v7.878h2.239C86.931,20.717,88.367,18.94,88.367,16.77z"/>
			<path fill="#FFFFFF" d="M99.283,22.477l-2.513-4.255h-2v4.255h-1.999V11.078h5.007c2.256,0,3.743,1.454,3.743,3.572
				c0,2.016-1.334,3.128-2.717,3.35l2.803,4.477H99.283z M99.471,14.633c0-1.094-0.821-1.794-1.949-1.794h-2.752v3.623h2.752
				C98.65,16.462,99.471,15.744,99.471,14.633z"/>
			<path fill="#FFFFFF" d="M103.448,16.787c0-3.401,2.409-5.896,5.828-5.896c3.4,0,5.828,2.495,5.828,5.896
				s-2.428,5.896-5.828,5.896C105.857,22.683,103.448,20.188,103.448,16.787z M113.053,16.787c0-2.358-1.487-4.119-3.777-4.119
				c-2.307,0-3.777,1.76-3.777,4.119c0,2.34,1.47,4.118,3.777,4.118C111.565,20.905,113.053,19.127,113.053,16.787z"/>
			<path fill="#FFFFFF" d="M117.441,22.477V11.078h1.998v11.399H117.441z"/>
			<path fill="#FFFFFF" d="M122.291,22.477V11.078h4.238c3.572,0,5.965,2.358,5.965,5.691c0,3.366-2.393,5.708-5.947,5.708H122.291z
				 M130.443,16.77c0-2.187-1.367-3.93-3.896-3.93h-2.258v7.878h2.24C129.006,20.717,130.443,18.94,130.443,16.77z"/>
			<path fill="#FFFFFF" d="M147.68,22.477l-0.838-2.204h-5.23l-0.836,2.204h-2.271l4.475-11.399h2.496l4.477,11.399H147.68z
				 M144.227,13.078l-2.049,5.435h4.102L144.227,13.078z"/>
			<path fill="#FFFFFF" d="M151.605,22.477V11.078h5.023c2.391,0,3.707,1.625,3.707,3.572c0,1.931-1.332,3.554-3.707,3.554h-3.027
				v4.272H151.605z M158.285,14.65c0-1.094-0.803-1.811-1.93-1.811h-2.754v3.605h2.754C157.482,16.444,158.285,15.728,158.285,14.65
				z"/>
			<path fill="#FFFFFF" d="M162.436,22.477V11.078h5.023c2.391,0,3.707,1.625,3.707,3.572c0,1.931-1.332,3.554-3.707,3.554h-3.025
				v4.272H162.436z M169.117,14.65c0-1.094-0.805-1.811-1.932-1.811h-2.752v3.605h2.752
				C168.312,16.444,169.117,15.728,169.117,14.65z"/>
			<path fill="#FFFFFF" d="M177.604,16.787c0-3.401,2.408-5.896,5.828-5.896c3.398,0,5.826,2.495,5.826,5.896
				s-2.428,5.896-5.826,5.896C180.012,22.683,177.604,20.188,177.604,16.787z M187.209,16.787c0-2.358-1.488-4.119-3.777-4.119
				c-2.309,0-3.777,1.76-3.777,4.119c0,2.34,1.469,4.118,3.777,4.118C185.721,20.905,187.209,19.127,187.209,16.787z"/>
			<path fill="#FFFFFF" d="M199.541,22.477l-5.947-8.151v8.151h-1.998V11.078h2.049l5.828,7.896v-7.896h2.002v11.399H199.541z"/>
		</g>
	</g>
</g>
</svg>
