<?xml version="1.0" standalone="no"?> <!DOCTYPE svg PUBLIC "-//W3C//DTD SVG 1.0//EN" "http://www.w3.org/TR/2001/REC-SVG-20010904/DTD/svg10.dtd" > <svg xmlns="http://www.w3.org/2000/svg" width="100%" height="100%">
<defs >
<font id="whitneymediumprogkcy" horiz-adv-x="855" ><font-face
    font-family="Whitney Medium"
    units-per-em="2048"
    panose-1="0 0 0 0 0 0 0 0 0 0"
    ascent="1638"
    descent="-410"
    alphabetic="0" />
<missing-glyph horiz-adv-x="1024" d="M0 -410V1638H1024V-410H0ZM145 1536L512 737L879 1536H145ZM102 -156L455 614L102 1384V-156ZM922 1384L569 614L922 -156V1384ZM512 492L145 -307H879L512 492Z" />
<glyph unicode=" " glyph-name="space" horiz-adv-x="450" />
<glyph unicode="!" glyph-name="exclam" horiz-adv-x="557" d="M389 1413L338 446L219 420L170 1413H389ZM381 0H176V244H381V0Z" />
<glyph unicode="&quot;" glyph-name="quotedbl" horiz-adv-x="837" d="M709 1384L657 958L551 983L500 1384H709ZM336 1384L287 958L178 983L129 1384H336Z" />
<glyph unicode="#" glyph-name="numbersign" horiz-adv-x="1353" d="M1100 1368L1047 1032H1268V877H1022L963 508H1200L1227 352H938L883 -4H737L795 352H449L391 -14L252 16L305 352H84V508H330L387 877H152L125 1032H412L469 1389H614L557 1032H901L961 1399L1100
1368ZM532 877L473 508H819L877 877H532Z" />
<glyph unicode="$" glyph-name="dollar" horiz-adv-x="1079" d="M741 1516L719 1378Q812 1362 926 1315L899 1143Q800 1202 688 1225L621 780Q810 713 896 620T983 379Q983 199 861 96T518 -8H500L461 -250L330 -221L362 2Q204 27 86 88L111 260Q247 181 393 156L469
653Q341 699 268 746T157 862T119 1030Q119 1205 238 1299T555 1393H582L606 1546L741 1516ZM813 369Q813 452 767 508T594 612L520 143H532Q813 143 813 369ZM285 1047Q285 966 330 917T496 823L561 1243H530Q410 1243 348 1191T285 1047Z" />
<glyph unicode="%" glyph-name="percent" horiz-adv-x="1843" d="M758 993Q758 807 663 697T424 586T185 696T90 993Q90 1180 185 1290T424 1401T663 1291T758 993ZM551 -14L412 20L858 709L1290 1399L1432 1364L985 676L551 -14ZM1751 391Q1751 205 1656 95T1417
-16T1178 94T1083 391Q1083 578 1178 688T1417 799T1656 689T1751 391ZM598 870T598 993T554 1194T424 1272Q336 1272 293 1195T250 993Q250 872 294 794T424 715Q512 715 555 792ZM1591 268T1591 391T1547 592T1417 670Q1329 670 1286 593T1243 391Q1243 270 1287
192T1417 113Q1505 113 1548 190Z" />
<glyph unicode="&amp;" glyph-name="ampersand" horiz-adv-x="1394" d="M1399 35L1200 -12L993 190Q812 -27 537 -27Q317 -27 195 72T72 354Q72 628 391 784Q319 862 286 932T252 1098Q252 1242 355 1341T637 1440Q826 1440 985 1352L954 1159Q780 1272 635 1272Q541
1272 492 1226T442 1102Q442 1038 474 982T584 850L973 461Q1039 607 1071 821L1239 784Q1195 527 1094 338L1399 35ZM539 137Q741 137 877 305L504 674Q264 562 264 375Q264 270 340 204T539 137Z" />
<glyph unicode="&apos;" glyph-name="quotesingle" horiz-adv-x="464" d="M336 1384L287 958L178 983L129 1384H336Z" />
<glyph unicode="(" glyph-name="parenleft" horiz-adv-x="800" d="M743 -154L567 -193Q418 -63 326 58T182 325T131 641Q131 1160 649 1487L678 1315Q497 1185 412 1020T326 637Q326 424 425 234T743 -154Z" />
<glyph unicode=")" glyph-name="parenright" horiz-adv-x="800" d="M57 1440L233 1479Q458 1283 564 1090T670 645Q670 127 152 -201L123 -29Q304 101 389 266T475 649Q475 863 375 1053T57 1440Z" />
<glyph unicode="*" glyph-name="asterisk" horiz-adv-x="819" d="M735 1165L512 1059L631 840L578 805L410 983L240 805L188 840L305 1059L84 1165L104 1225L346 1182L375 1423H442L471 1182L715 1225L735 1165Z" />
<glyph unicode="+" glyph-name="plus" horiz-adv-x="1171" d="M1061 616H666V209H506V616H111V768H506V1176H666V768H1061V616Z" />
<glyph unicode="," glyph-name="comma" horiz-adv-x="464" d="M369 244L156 -272L55 -248L158 244H369Z" />
<glyph unicode="-" glyph-name="hyphen" horiz-adv-x="724" d="M614 494H111V672H614V494Z" />
<glyph unicode="." glyph-name="period" horiz-adv-x="464" d="M334 0H131V244H334V0Z" />
<glyph unicode="/" glyph-name="slash" horiz-adv-x="1097" d="M1055 1397L88 -260L-76 -225L891 1432L1055 1397Z" />
<glyph unicode="0" glyph-name="zero" horiz-adv-x="1267" d="M1163 1031T1163 692T1019 163T635 -27Q393 -27 249 163T104 692T248 1221T635 1411Q875 1411 1019 1221ZM975 692Q975 961 886 1105T635 1249T384 1105T293 692T383 280T635 135T885 279T975 692Z" />
<glyph unicode="1" glyph-name="one" horiz-adv-x="731" d="M537 0H354V1196L66 1087L45 1235L377 1389H537V0Z" />
<glyph unicode="2" glyph-name="two" horiz-adv-x="1093" d="M993 0H90V141L602 676Q699 778 740 852T782 1008Q782 1123 718 1182T530 1241Q337 1241 154 1077L127 1255Q308 1411 541 1411Q741 1411 857 1305T973 1020Q973 898 919 800T731 565L338 164H969L993 0Z" />
<glyph unicode="3" glyph-name="three" horiz-adv-x="1052" d="M958 379Q958 195 825 84T465 -27Q358 -27 254 2T68 82L98 262Q278 139 475 139Q614 139 692 200T770 377Q770 641 391 641H328L301 809H406Q743 809 743 1040Q743 1133 676 1189T483 1245Q282 1245
117 1112L90 1284Q264 1411 492 1411Q604 1411 691 1381T829 1300T906 1185T932 1049Q932 811 678 727Q958 650 958 379Z" />
<glyph unicode="4" glyph-name="four" horiz-adv-x="1206" d="M1155 313H934V0H764V313H72V449L715 1389H934V465H1155V313ZM764 465V1182L268 465H764Z" />
<glyph unicode="5" glyph-name="five" horiz-adv-x="1079" d="M995 434Q995 219 852 96T487 -27Q257 -27 88 80L117 254Q284 135 494 135Q635 135 723 209T811 424Q811 548 735 619T518 690Q388 690 283 645L145 676L195 1384H924L948 1221H348L317 817Q428 852
539 852Q749 852 872 738T995 434Z" />
<glyph unicode="6" glyph-name="six" horiz-adv-x="1155" d="M877 1247Q376 1121 297 739Q459 848 647 848Q846 848 961 734T1077 424Q1077 228 942 101T600 -27Q491 -27 400 11T243 121T139 306T102 559Q102 735 156 878T312 1125T548 1298T852 1411L877 1247ZM606
686Q427 686 281 565Q281 369 369 252T606 135Q734 135 813 210T893 416T823 616T606 686Z" />
<glyph unicode="7" glyph-name="seven" horiz-adv-x="1081" d="M989 1241L434 -14L254 27L782 1219H96L72 1384H989V1241Z" />
<glyph unicode="8" glyph-name="eight" horiz-adv-x="1163" d="M92 354Q92 577 375 725Q254 786 200 867T145 1061Q145 1215 269 1313T588 1411Q790 1411 906 1314T1022 1061Q1022 863 786 729Q881 684 940 636T1035 516T1071 348Q1071 192 936 83T580 -27Q351
-27 222 82T92 354ZM272 362Q272 259 359 192T584 125Q720 125 805 191T891 354Q891 461 817 523T537 659Q416 609 344 531T272 362ZM324 1063Q324 973 390 916T627 793Q726 842 785 910T844 1055Q844 1146 774 1204T584 1262T395 1206T324 1063Z" />
<glyph unicode="9" glyph-name="nine" horiz-adv-x="1155" d="M258 137Q753 241 852 621Q694 518 508 518Q307 518 193 634T78 952T212 1282T553 1411Q778 1411 915 1258T1053 825Q1053 650 997 505T838 256T596 81T285 -27L258 137ZM547 680Q729 680 874 801V815Q874
1013 785 1131T549 1249Q418 1249 340 1173T262 961Q262 680 547 680Z" />
<glyph unicode=":" glyph-name="colon" horiz-adv-x="483" d="M344 733H139V977H344V733ZM344 0H139V244H344V0Z" />
<glyph unicode=";" glyph-name="semicolon" horiz-adv-x="483" d="M358 733H154V977H358V733ZM365 244L152 -272L51 -248L154 244H365Z" />
<glyph unicode="&lt;" glyph-name="less" horiz-adv-x="1171" d="M1032 168L117 623V762L1032 1217V1040L305 694L1032 346V168Z" />
<glyph unicode="=" glyph-name="equal" horiz-adv-x="1208" d="M1061 840H150V1004H1061V840ZM1061 381H150V545H1061V381Z" />
<glyph unicode="&gt;" glyph-name="greater" horiz-adv-x="1171" d="M1055 623L139 168V344L866 690L139 1038V1217L1055 762V623Z" />
<glyph unicode="?" glyph-name="question" horiz-adv-x="1060" d="M948 1077Q948 1012 930 958T882 863T799 784T693 716T557 649L539 446L420 420L393 758L477 793Q629 855 692 914T756 1069Q756 1161 690 1213T518 1266Q318 1266 117 1100L90 1288Q297 1440
528 1440Q717 1440 832 1342T948 1077ZM582 0H377V244H582V0Z" />
<glyph unicode="@" glyph-name="at" horiz-adv-x="1712" d="M1243 90Q1138 90 1068 138T979 279Q892 176 828 133T688 90Q599 90 535 155T471 340Q471 465 511 575T618 758T767 873T938 915Q1069 915 1214 862L1143 434Q1130 350 1130 322Q1130 259 1165 225T1262
190Q1375 190 1445 304T1516 621Q1516 765 1472 878T1348 1063T1164 1172T934 1210Q785 1210 650 1148T414 977T254 712T195 379Q195 228 239 113T364 -73T550 -179T784 -215Q1024 -215 1229 -115L1241 -188Q1031 -287 776 -287Q467 -287 286 -112T104 377Q104
622 214 830T517 1161T942 1284Q1242 1284 1423 1104T1604 623Q1604 387 1503 239T1243 90ZM735 227Q782 227 838 272T977 418L1038 766Q983 784 918 784Q810 784 722 666T633 369Q633 227 735 227Z" />
<glyph unicode="A" glyph-name="A" horiz-adv-x="1409" d="M59 0L612 1419H805L1350 27L1159 -14L993 424H418L260 0H59ZM705 1194L479 594H930L705 1194Z" />
<glyph unicode="B" glyph-name="B" horiz-adv-x="1116" d="M1030 414Q1030 206 894 103T508 0H170V1413H512Q738 1413 853 1315T969 1047Q969 839 766 754Q1030 675 1030 414ZM780 1040Q780 1249 508 1249H358V819H494Q632 819 706 877T780 1040ZM842 288T842
410T758 597T516 662H358V164H522Q676 164 759 226Z" />
<glyph unicode="C" glyph-name="C" horiz-adv-x="1294" d="M1194 111Q1109 49 996 11T766 -27Q470 -27 292 174T113 705Q113 922 194 1089T424 1348T770 1440Q1000 1440 1171 1323L1143 1126Q961 1264 768 1264Q554 1264 433 1114T311 707Q311 451 433 302T768
152Q972 152 1165 293L1194 111Z" />
<glyph unicode="D" glyph-name="D" horiz-adv-x="1439" d="M1323 709Q1323 551 1274 421T1130 197T893 52T571 0H170V1413H580Q761 1413 903 1362T1136 1216T1275 994T1323 709ZM1124 707Q1124 966 980 1102T586 1239H362V174H580Q840 174 982 307T1124 707Z" />
<glyph unicode="E" glyph-name="E" horiz-adv-x="1036" d="M952 0H170V1413H932V1237H362V827H805L834 651H362V176H952V0Z" />
<glyph unicode="F" glyph-name="F" horiz-adv-x="978" d="M905 1237H362V805H788L817 629H362V0H170V1413H905V1237Z" />
<glyph unicode="G" glyph-name="G" horiz-adv-x="1427" d="M1278 111Q1181 49 1058 11T801 -27Q581 -27 425 65T191 321T113 705Q113 924 192 1089T423 1347T784 1440Q1034 1440 1214 1319L1184 1122Q1002 1264 782 1264Q554 1264 433 1116T311 707T436 300T801
152Q963 152 1087 221V596H762L735 772H1278V111Z" />
<glyph unicode="H" glyph-name="H" horiz-adv-x="1439" d="M1270 0H1077V651H362V0H170V1413H362V827H1077V1413H1270V0Z" />
<glyph unicode="I" glyph-name="I" horiz-adv-x="557" d="M375 0H182V1413H375V0Z" />
<glyph unicode="J" glyph-name="J" horiz-adv-x="757" d="M600 348Q600 165 494 76T201 -14Q144 -14 74 -2L45 172Q116 154 203 154Q304 154 356 204T408 365V1413H600V348Z" />
<glyph unicode="K" glyph-name="K" horiz-adv-x="1247" d="M1229 31L1016 -14L362 717V0H170V1413H362V778L948 1413H1194L571 750L1229 31Z" />
<glyph unicode="L" glyph-name="L" horiz-adv-x="958" d="M899 0H170V1413H362V180H872L899 0Z" />
<glyph unicode="M" glyph-name="M" horiz-adv-x="1843" d="M1710 0H1526L1438 1141L995 -6H842L399 1141L313 0H133L246 1413H483L924 254L1364 1413H1599L1710 0Z" />
<glyph unicode="N" glyph-name="N" horiz-adv-x="1439" d="M1270 0H1124L348 1100V0H170V1413H342L1092 354V1413H1270V0Z" />
<glyph unicode="O" glyph-name="O" horiz-adv-x="1527" d="M1415 709Q1415 379 1237 176T762 -27Q566 -27 419 64T192 322T113 705Q113 1035 291 1237T766 1440Q1063 1440 1239 1239T1415 709ZM1217 707Q1217 962 1095 1113T764 1264Q554 1264 433 1114T311 707T433
301T764 150T1095 300T1217 707Z" />
<glyph unicode="P" glyph-name="P" horiz-adv-x="1097" d="M1024 1006Q1024 794 887 684T512 573H362V0H170V1413H545Q771 1413 897 1307T1024 1006ZM829 999Q829 1120 755 1181T535 1243H362V743H522Q670 743 749 806T829 999Z" />
<glyph unicode="Q" glyph-name="Q" horiz-adv-x="1527" d="M1415 709Q1415 444 1298 265T979 20L1384 -123L1346 -293L582 -8Q113 164 113 705Q113 1035 291 1237T766 1440Q1063 1440 1239 1239T1415 709ZM1217 707Q1217 962 1095 1113T764 1264Q554 1264 433
1114T311 707Q311 450 433 295T764 139T1094 294T1217 707Z" />
<glyph unicode="R" glyph-name="R" horiz-adv-x="1167" d="M1135 29L932 -14L506 596H362V0H170V1413H555Q774 1413 899 1309T1024 1012Q1024 856 942 758T715 621L1135 29ZM831 884T831 1001T759 1180T547 1243H362V758H526Q669 758 750 821Z" />
<glyph unicode="S" glyph-name="S" horiz-adv-x="1048" d="M950 381Q950 200 827 92T504 -16Q280 -16 109 76L137 272Q320 152 508 152Q621 152 690 209T760 367Q760 462 706 517T489 645Q384 693 319 732T208 820T142 924T123 1057Q123 1226 241 1328T553 1430Q736
1430 874 1350L844 1157Q707 1262 547 1262Q431 1262 372 1209T313 1071Q313 990 367 938T582 813Q725 748 801 692T913 562T950 381Z" />
<glyph unicode="T" glyph-name="T" horiz-adv-x="1228" d="M1174 1237H711V0H518V1237H68V1413H1145L1174 1237Z" />
<glyph unicode="U" glyph-name="U" horiz-adv-x="1411" d="M1255 545Q1255 278 1107 126T702 -27Q447 -27 302 124T156 535V1413H348V559Q348 368 436 259T702 150Q880 150 971 254T1063 553V1413H1255V545Z" />
<glyph unicode="V" glyph-name="V" horiz-adv-x="1386" d="M1327 1413L778 -10H602L59 1386L256 1427L692 254L1120 1413H1327Z" />
<glyph unicode="W" glyph-name="W" horiz-adv-x="2082" d="M2011 1413L1585 -6H1423L1040 1145L657 -6H498L80 1386L272 1427L588 303L948 1413H1141L1501 303L1810 1413H2011Z" />
<glyph unicode="X" glyph-name="X" horiz-adv-x="1302" d="M1241 27L1044 -14L647 598L266 0H53L541 737L106 1386L301 1427L651 883L987 1413H1202L760 743L1241 27Z" />
<glyph unicode="Y" glyph-name="Y" horiz-adv-x="1302" d="M1257 1413L743 561V0H551V561L51 1386L248 1427L649 741L1038 1413H1257Z" />
<glyph unicode="Z" glyph-name="Z" horiz-adv-x="1220" d="M1143 0H88V143L893 1245H150L123 1413H1124V1270L319 168H1116L1143 0Z" />
<glyph unicode="[" glyph-name="bracketleft" horiz-adv-x="837" d="M748 -213H178V1413H733V1274H352V-74H725L748 -213Z" />
<glyph unicode="\" glyph-name="backslash" horiz-adv-x="1097" d="M1174 -227L1010 -262L43 1395L207 1430L1174 -227Z" />
<glyph unicode="]" glyph-name="bracketright" horiz-adv-x="837" d="M88 1413H657V-213H102V-74H483V1274H111L88 1413Z" />
<glyph unicode="^" glyph-name="asciicircum" horiz-adv-x="929" d="M752 1120H637L463 1266L289 1120H174L377 1409H549L752 1120Z" />
<glyph unicode="_" glyph-name="underscore" horiz-adv-x="929" d="M934 -213H-4V-70H934V-213Z" />
<glyph unicode="`" glyph-name="grave" horiz-adv-x="929" d="M649 1120H526L252 1380L473 1430L649 1120Z" />
<glyph unicode="a" glyph-name="a" horiz-adv-x="1021" d="M883 0H735L715 131Q568 -20 371 -20Q239 -20 162 53T84 252Q84 429 232 515T700 635V676Q700 842 514 842Q367 842 176 758L152 915Q350 997 530 997T796 922T883 684V0ZM700 268V496Q595 486 517 468T391
428T314 378T275 322T264 262Q264 201 302 166T410 131Q566 131 700 268Z" />
<glyph unicode="b" glyph-name="b" horiz-adv-x="1091" d="M1004 516Q1004 257 874 123T524 -12Q345 -12 143 49V1450L326 1479V862Q455 997 618 997Q699 997 768 967T890 879T973 728T1004 516ZM819 508Q819 664 756 750T592 836Q453 836 326 676V176Q418 143
522 143Q819 143 819 508Z" />
<glyph unicode="c" glyph-name="c" horiz-adv-x="956" d="M877 80Q743 -20 543 -20Q341 -20 215 114T88 487Q88 728 219 862T555 997Q742 997 866 907L840 729Q705 838 553 838Q424 838 348 747T272 489Q272 318 351 229T559 139Q722 139 850 248L877 80Z" />
<glyph unicode="d" glyph-name="d" horiz-adv-x="1101" d="M958 0H813L791 141Q656 -20 473 -20Q392 -20 324 9T202 97T118 248T88 461Q88 591 123 693T220 859T361 956T530 989Q671 989 776 946V1450L958 1479V0ZM776 313V780Q717 810 665 823T537 836Q418 836
345 741T272 469Q272 312 335 227T500 141Q647 141 776 313Z" />
<glyph unicode="e" glyph-name="e" horiz-adv-x="1021" d="M932 111Q764 -20 541 -20Q443 -20 363 10T220 100T123 261T88 492Q88 723 209 860T518 997Q656 997 751 930T890 755T934 508V469H270Q274 303 349 219T555 135Q654 135 736 170T905 274L932 111ZM516
854Q428 854 364 791T279 606H750Q714 854 516 854Z" />
<glyph unicode="f" glyph-name="f" horiz-adv-x="636" d="M606 1296Q561 1305 512 1305Q377 1305 377 1180V977H573L596 823H377V0H199V823H51V977H199V1198Q199 1337 280 1401T502 1466Q530 1466 580 1462L606 1296Z" />
<glyph unicode="g" glyph-name="g" horiz-adv-x="1032" d="M969 -72Q969 -170 902 -239T729 -341T492 -373Q291 -373 163 -309T35 -121Q35 -47 85 13T242 131Q180 176 180 233Q180 303 283 367Q198 409 149 484T100 657Q100 810 210 903T475 997Q621 997 727 913L975
991L1001 827L815 809Q854 739 854 657Q854 506 744 414T479 322Q439 322 406 328Q356 295 356 268Q356 243 392 231T563 195L633 182Q800 152 884 94T969 -72ZM496 51Q404 68 373 76Q209 -8 209 -106Q209 -167 285 -204T500 -242Q638 -242 717 -200T797 -94Q797
-48 755 -18T612 31L496 51ZM678 570T678 659T622 806T475 864T331 804T276 651Q276 565 331 508T475 451Q567 451 622 510Z" />
<glyph unicode="h" glyph-name="h" horiz-adv-x="1079" d="M940 0H758V666Q758 834 608 834Q474 834 326 676V0H143V1450L326 1479V848Q492 997 657 997Q794 997 867 921T940 711V0Z" />
<glyph unicode="i" glyph-name="i" horiz-adv-x="497" d="M365 1288Q365 1241 331 1208T250 1174Q202 1174 168 1207T133 1288Q133 1336 167 1370T250 1405Q297 1405 331 1371T365 1288ZM340 0H158V977H340V0Z" />
<glyph unicode="j" glyph-name="j" horiz-adv-x="497" d="M365 1288Q365 1241 331 1208T250 1174Q202 1174 168 1207T133 1288Q133 1336 167 1370T250 1405Q297 1405 331 1371T365 1288ZM340 -123Q340 -250 271 -311T80 -373Q17 -373 -4 -367L-31 -205Q0 -213
55 -213Q158 -213 158 -106V977H340V-123Z" />
<glyph unicode="k" glyph-name="k" horiz-adv-x="985" d="M958 16L760 -14L326 512V0H143V1450L326 1479V567L705 977H924L512 545L958 16Z" />
<glyph unicode="l" glyph-name="l" horiz-adv-x="497" d="M340 0H158V1450L340 1479V0Z" />
<glyph unicode="m" glyph-name="m" horiz-adv-x="1669" d="M1530 0H1348V666Q1348 834 1204 834Q1076 834 928 676V0H745V666Q745 834 602 834Q474 834 326 676V0H143V977H289L311 836Q487 997 651 997Q849 997 909 836Q1078 997 1253 997Q1390 997 1460 922T1530 711V0Z" />
<glyph unicode="n" glyph-name="n" horiz-adv-x="1079" d="M940 0H758V666Q758 834 608 834Q474 834 326 676V0H143V977H289L311 836Q487 997 657 997Q794 997 867 921T940 711V0Z" />
<glyph unicode="o" glyph-name="o" horiz-adv-x="1079" d="M991 487Q991 251 865 116T537 -20Q337 -20 213 115T88 487Q88 724 212 860T537 997Q738 997 864 861T991 487ZM807 487Q807 644 736 745T537 846T341 747T272 487Q272 331 342 231T537 131Q668 131 737
229T807 487Z" />
<glyph unicode="p" glyph-name="p" horiz-adv-x="1101" d="M1014 516Q1014 386 979 284T882 118T741 21T571 -12Q431 -12 326 31V-354L143 -381V977H289L311 836Q450 997 629 997Q709 997 778 967T900 879T983 728T1014 516ZM829 508Q829 664 766 750T600 836Q453
836 326 664V195Q383 166 435 154T563 141Q682 141 755 236T829 508Z" />
<glyph unicode="q" glyph-name="q" horiz-adv-x="1091" d="M948 -354L766 -381V113Q633 -20 473 -20Q392 -20 324 9T202 97T118 248T88 461Q88 720 218 854T567 989Q672 989 757 975T948 928V-354ZM766 301V799Q669 834 569 834Q272 834 272 469Q272 312 335 227T500
141Q637 141 766 301Z" />
<glyph unicode="r" glyph-name="r" horiz-adv-x="733" d="M690 823Q573 817 475 748T326 578V0H143V977H289L319 778Q377 871 463 931T662 997L690 823Z" />
<glyph unicode="s" glyph-name="s" horiz-adv-x="905" d="M825 272Q825 136 726 58T440 -20Q348 -20 250 7T84 72L111 244Q273 131 455 131Q549 131 601 165T653 260Q653 326 605 359T422 426Q245 470 173 535T100 727Q100 846 193 921T444 997Q620 997 766 932L737
760Q590 844 440 844Q359 844 316 814T272 731Q272 682 316 651T475 590Q666 541 745 474T825 272Z" />
<glyph unicode="t" glyph-name="t" horiz-adv-x="690" d="M612 -4Q552 -16 475 -16Q337 -16 264 43T190 242V823H43V977H190V1303L369 1329V977H580L604 823H369V274Q369 211 399 178T504 145Q556 145 588 152L612 -4Z" />
<glyph unicode="u" glyph-name="u" horiz-adv-x="1079" d="M936 0H791L768 141Q596 -20 422 -20Q285 -20 212 56T139 266V977H322V311Q322 232 358 188T471 143Q606 143 754 301V977H936V0Z" />
<glyph unicode="v" glyph-name="v" horiz-adv-x="964" d="M918 977L571 -6H393L49 963L236 991L485 219L727 977H918Z" />
<glyph unicode="w" glyph-name="w" horiz-adv-x="1478" d="M1421 977L1108 -4H954L737 733L522 -4H371L57 963L236 991L449 254L664 977H817L1032 254L1239 977H1421Z" />
<glyph unicode="x" glyph-name="x" horiz-adv-x="966" d="M907 12L727 -14L481 375L252 0H59L385 500L80 963L260 991L483 633L696 977H887L580 506L907 12Z" />
<glyph unicode="y" glyph-name="y" horiz-adv-x="989" d="M942 977L543 -102Q486 -256 408 -314T213 -373Q173 -373 135 -365L109 -199Q161 -213 205 -213Q268 -213 310 -180T381 -70L406 -4L49 963L233 991L496 217L752 977H942Z" />
<glyph unicode="z" glyph-name="z" horiz-adv-x="925" d="M852 0H72V143L618 825H121L96 977H827V834L279 152H827L852 0Z" />
<glyph unicode="{" glyph-name="braceleft" horiz-adv-x="976" d="M887 -213H645Q352 -213 352 55Q352 102 365 195T379 338Q379 532 178 532H104L82 670H180Q379 670 379 862Q379 912 366 1005T352 1145Q352 1413 645 1413H874V1274H659Q592 1274 559 1241T526
1147Q526 1106 540 1008T555 864Q555 745 502 686T346 602V598Q448 576 501 516T555 336Q555 292 541 193T526 53Q526 -74 657 -74H864L887 -213Z" />
<glyph unicode="|" glyph-name="bar" horiz-adv-x="544" d="M354 -354L190 -381V1452L354 1479V-354Z" />
<glyph unicode="}" glyph-name="braceright" horiz-adv-x="976" d="M88 1413H330Q623 1413 623 1145Q623 1099 610 1006T596 862Q596 668 797 668H870L893 530H795Q596 530 596 338Q596 289 609 196T623 55Q623 -213 330 -213H100V-74H315Q449 -74 449 53Q449
94 435 192T420 336Q420 455 473 514T629 598V602Q527 624 474 684T420 864Q420 909 434 1007T449 1147Q449 1274 317 1274H111L88 1413Z" />
<glyph unicode="~" glyph-name="asciitilde" horiz-adv-x="837" d="M735 690Q708 457 565 457Q509 457 420 504Q361 535 335 545T287 555Q263 555 248 533T221 451L102 475Q130 709 272 709Q297 709 322 702T363 688T416 662Q481 629 504 620T551 610Q573 610
588 633T616 717L735 690Z" />
</font>
</defs>
</svg>
