<?xml version="1.0" standalone="no"?> <!DOCTYPE svg PUBLIC "-//W3C//DTD SVG 1.0//EN" "http://www.w3.org/TR/2001/REC-SVG-20010904/DTD/svg10.dtd" > <svg xmlns="http://www.w3.org/2000/svg" width="100%" height="100%">
<defs >
<font id="whitneybookprogkcy" horiz-adv-x="846" ><font-face
    font-family="Whitney Book"
    units-per-em="2048"
    panose-1="0 0 0 0 0 0 0 0 0 0"
    ascent="1639"
    descent="-410"
    alphabetic="0" />
<missing-glyph horiz-adv-x="1024" d="M0 -410V1638H1024V-410H0ZM145 1536L512 737L879 1536H145ZM102 -156L455 614L102 1384V-156ZM922 1384L569 614L922 -156V1384ZM512 492L145 -307H879L512 492Z" />
<glyph unicode=" " glyph-name="space" horiz-adv-x="462" />
<glyph unicode="!" glyph-name="exclam" horiz-adv-x="548" d="M356 1413L315 410L233 391L193 1413H356ZM354 0H195V201H354V0Z" />
<glyph unicode="&quot;" glyph-name="quotedbl" horiz-adv-x="792" d="M649 1384L606 985L530 1001L485 1384H649ZM305 1384L262 985L184 1001L143 1384H305Z" />
<glyph unicode="#" glyph-name="numbersign" horiz-adv-x="1327" d="M1069 1376L1012 1016H1237V901H993L928 483H1176L1194 369H909L852 -4H743L801 369H422L360 -14L256 8L313 369H90V483H332L397 901H150L131 1016H416L475 1389H584L522 1016H903L965 1399L1069
1376ZM506 901L440 483H819L887 901H506Z" />
<glyph unicode="$" glyph-name="dollar" horiz-adv-x="1097" d="M733 1522L709 1380Q808 1363 920 1319L899 1192Q805 1240 688 1266L610 764Q804 695 889 607T975 377Q975 201 855 97T526 -8H489L453 -252L354 -229L391 0Q250 21 111 84L129 211Q276 136 412
115L498 674Q309 739 224 819T139 1040Q139 1205 253 1299T559 1393Q592 1393 608 1391L633 1546L733 1522ZM850 367Q850 462 796 524T592 643L508 104H539Q688 104 769 176T850 367ZM264 1051Q264 956 320 902T516 797L592 1280Q575 1282 545 1282Q409 1282 337
1219T264 1051Z" />
<glyph unicode="%" glyph-name="percent" horiz-adv-x="1802" d="M750 1012Q750 834 661 729T434 623Q296 623 207 728T117 1012Q117 1188 206 1294T434 1401Q570 1401 660 1295T750 1012ZM510 -14L406 12L850 705L1288 1399L1395 1372L950 680L510 -14ZM1686
549T1686 373T1596 91T1368 -16Q1232 -16 1143 90T1053 373T1142 655T1368 762Q1505 762 1595 656ZM629 1012Q629 1138 577 1219T432 1300T289 1220T238 1012Q238 885 290 803T436 721Q528 721 578 802T629 1012ZM1563 245T1563 373T1512 582T1368 664Q1275 664
1225 583T1174 373Q1174 247 1226 166T1370 84T1512 164Z" />
<glyph unicode="&amp;" glyph-name="ampersand" horiz-adv-x="1398" d="M1374 23L1229 -12L1004 213Q822 -23 539 -23Q333 -23 212 81T90 358Q90 507 179 611T428 788Q349 871 314 943T279 1108Q279 1249 379 1342T647 1436Q824 1436 981 1348L954 1206Q787 1313
643 1313Q539 1313 480 1257T420 1114Q420 1041 453 979T569 834L983 416Q1063 575 1100 823L1229 797Q1180 514 1075 324L1374 23ZM541 98Q769 98 915 301L510 705Q376 649 305 565T233 371Q233 253 319 176T541 98Z" />
<glyph unicode="&apos;" glyph-name="quotesingle" horiz-adv-x="448" d="M305 1384L262 985L184 1001L143 1384H305Z" />
<glyph unicode="(" glyph-name="parenleft" horiz-adv-x="802" d="M715 -168L580 -197Q440 -73 348 47T199 318T143 637Q143 1157 662 1489L684 1362Q481 1220 384 1044T287 633Q287 414 394 218T715 -168Z" />
<glyph unicode=")" glyph-name="parenright" horiz-adv-x="802" d="M86 1452L221 1481Q361 1357 453 1237T601 966T657 647Q657 124 139 -205L117 -78Q321 66 418 241T516 651Q516 870 409 1066T86 1452Z" />
<glyph unicode="*" glyph-name="asterisk" horiz-adv-x="831" d="M731 1180L494 1075L625 846L590 821L416 1020L242 821L205 846L336 1075L100 1180L113 1221L367 1167L391 1425H438L463 1167L717 1221L731 1180Z" />
<glyph unicode="+" glyph-name="plus" horiz-adv-x="1167" d="M1049 637H643V223H524V637H117V748H524V1161H643V748H1049V637Z" />
<glyph unicode="," glyph-name="comma" horiz-adv-x="448" d="M336 201L139 -272L68 -254L172 201H336Z" />
<glyph unicode="-" glyph-name="hyphen" horiz-adv-x="745" d="M621 512H125V647H621V512Z" />
<glyph unicode="." glyph-name="period" horiz-adv-x="448" d="M303 0H145V201H303V0Z" />
<glyph unicode="/" glyph-name="slash" horiz-adv-x="1058" d="M1016 1401L49 -254L-72 -229L895 1427L1016 1401Z" />
<glyph unicode="0" glyph-name="zero" horiz-adv-x="1261" d="M1139 1024T1139 694T1002 169T631 -27Q396 -27 260 167T123 690Q123 1021 260 1216T631 1411T1002 1218ZM999 416T999 692T903 1129T631 1290Q455 1290 359 1129T262 692T358 255T631 94Q806 94 902 255Z" />
<glyph unicode="1" glyph-name="one" horiz-adv-x="727" d="M510 0H375V1243L78 1124L59 1235L399 1391H510V0Z" />
<glyph unicode="2" glyph-name="two" horiz-adv-x="1095" d="M975 0H102V100L612 643Q724 762 767 846T811 1026Q811 1150 739 1219T537 1288Q349 1288 160 1122L139 1257Q323 1411 545 1411Q735 1411 843 1309T952 1034Q952 910 898 807T713 567L287 121H956L975 0Z" />
<glyph unicode="3" glyph-name="three" horiz-adv-x="1071" d="M950 375Q950 198 819 86T479 -27Q371 -27 270 2T92 82L115 217Q206 154 292 125T487 96Q634 96 721 171T809 373Q809 513 710 590T408 668H346L328 791H422Q597 791 689 861T782 1055Q782 1160 710
1224T504 1288Q308 1288 133 1155L115 1284Q292 1411 510 1411Q711 1411 817 1311T924 1061Q924 934 852 853T659 733Q950 650 950 375Z" />
<glyph unicode="4" glyph-name="four" horiz-adv-x="1214" d="M1147 328H920V0H793V328H84V424L754 1391H920V440H1147V328ZM793 440V1241L233 440H793Z" />
<glyph unicode="5" glyph-name="five" horiz-adv-x="1093" d="M983 426Q983 220 842 98T489 -25Q267 -25 104 76L125 207Q303 94 494 94Q643 94 744 180T846 420Q846 558 761 638T520 719Q385 719 258 666L166 688L215 1384H911L932 1264H330L297 799Q418 840
532 840Q739 840 861 728T983 426Z" />
<glyph unicode="6" glyph-name="six" horiz-adv-x="1163" d="M864 1288Q336 1142 268 709Q451 834 643 834Q836 834 950 722T1065 420Q1065 222 937 98T612 -27Q397 -27 261 132T125 561Q125 733 176 874T324 1118T550 1294T846 1413L864 1288ZM621 715Q438 715
260 575V567Q260 356 358 224T614 92Q756 92 841 180T926 414Q926 552 848 633T621 715Z" />
<glyph unicode="7" glyph-name="seven" horiz-adv-x="1089" d="M979 1282L406 -14L274 16L825 1262H113L94 1384H979V1282Z" />
<glyph unicode="8" glyph-name="eight" horiz-adv-x="1169" d="M117 348Q117 584 412 731Q170 841 170 1065Q170 1214 289 1312T594 1411Q781 1411 894 1314T1008 1069Q1008 862 760 725Q904 663 978 575T1053 352Q1053 191 921 82T586 -27Q372 -27 245 80T117
348ZM252 356Q252 237 346 163T590 88Q728 88 823 163T918 354Q918 468 836 538T535 682Q404 628 328 543T252 356ZM305 1067Q305 965 377 901T639 772Q749 826 810 900T872 1063Q872 1165 795 1231T590 1298Q459 1298 382 1230T305 1067Z" />
<glyph unicode="9" glyph-name="nine" horiz-adv-x="1163" d="M279 96Q534 153 692 292T891 653Q712 532 522 532Q329 532 215 647T100 958T226 1282T553 1411Q771 1411 904 1253T1038 823Q1038 651 986 509T835 263T602 86T299 -29L279 96ZM545 653Q739 653 905
788V817Q905 1031 807 1161T551 1292Q407 1292 323 1203T238 965Q238 821 317 737T545 653Z" />
<glyph unicode=":" glyph-name="colon" horiz-adv-x="464" d="M313 768H154V969H313V768ZM313 0H154V201H313V0Z" />
<glyph unicode=";" glyph-name="semicolon" horiz-adv-x="464" d="M324 768H164V969H324V768ZM328 201L131 -272L57 -254L164 201H328Z" />
<glyph unicode="&lt;" glyph-name="less" horiz-adv-x="1167" d="M1016 182L119 639V745L1016 1202V1071L258 694L1016 315V182Z" />
<glyph unicode="=" glyph-name="equal" horiz-adv-x="1236" d="M1079 856H158V979H1079V856ZM1079 406H158V528H1079V406Z" />
<glyph unicode="&gt;" glyph-name="greater" horiz-adv-x="1167" d="M1049 639L152 182V313L909 690L152 1069V1202L1049 745V639Z" />
<glyph unicode="?" glyph-name="question" horiz-adv-x="1019" d="M905 1092Q905 1014 881 952T803 838T688 746T530 657L512 410L422 389L397 729L455 754Q628 838 695 910T762 1085Q762 1192 690 1252T496 1313Q302 1313 115 1163L96 1300Q282 1440 502 1440Q681
1440 793 1346T905 1092ZM547 0H387V201H547V0Z" />
<glyph unicode="@" glyph-name="at" horiz-adv-x="1722" d="M1239 96Q1134 96 1070 149T997 297Q907 191 840 144T698 96Q609 96 548 166T487 360Q487 479 526 583T629 758T776 870T946 911Q1067 911 1198 854L1124 422Q1114 350 1114 313Q1114 248 1149 210T1255
172Q1373 172 1452 296T1532 637Q1532 914 1376 1066T948 1219Q792 1219 653 1157T411 985T248 718T188 377Q188 80 348 -73T782 -227Q1031 -227 1225 -129L1235 -188Q1039 -287 774 -287Q465 -287 290 -114T115 375Q115 629 225 836T527 1162T954 1280Q1257 1280
1429 1107T1602 639Q1602 393 1498 245T1239 96ZM729 203Q783 203 844 251T1001 418L1067 782Q1003 809 934 809Q874 809 816 778T712 692T638 554T610 375Q610 288 641 246T729 203Z" />
<glyph unicode="A" glyph-name="A" horiz-adv-x="1415" d="M80 0L637 1421H782L1335 16L1196 -14L1016 457H399L225 0H80ZM707 1257L449 582H967L707 1257Z" />
<glyph unicode="B" glyph-name="B" horiz-adv-x="1120" d="M1016 408Q1016 209 882 105T514 0H188V1413H516Q729 1413 840 1319T952 1061Q952 950 895 872T737 752Q869 715 942 630T1016 408ZM813 1055Q813 1167 738 1228T512 1290H328V799H508Q654 799 733 869T813
1055ZM877 399Q877 540 783 611T518 682H328V123H526Q689 123 783 195T877 399Z" />
<glyph unicode="C" glyph-name="C" horiz-adv-x="1306" d="M1196 115Q1112 51 999 12T766 -27Q479 -27 302 175T125 705Q125 920 206 1087T435 1347T776 1440Q999 1440 1174 1319L1151 1176Q963 1313 774 1313Q543 1313 407 1147T270 709Q270 435 406 269T772
102Q983 102 1176 250L1196 115Z" />
<glyph unicode="D" glyph-name="D" horiz-adv-x="1435" d="M1309 709Q1309 383 1109 192T567 0H188V1413H573Q920 1413 1114 1221T1309 709ZM1163 707Q1163 986 1005 1136T575 1286H330V127H575Q851 127 1007 274T1163 707Z" />
<glyph unicode="E" glyph-name="E" horiz-adv-x="1038" d="M946 0H188V1413H926V1284H330V803H801L821 676H330V129H946V0Z" />
<glyph unicode="F" glyph-name="F" horiz-adv-x="976" d="M897 1284H330V780H784L805 653H330V0H188V1413H897V1284Z" />
<glyph unicode="G" glyph-name="G" horiz-adv-x="1421" d="M1253 117Q1034 -27 788 -27Q583 -27 432 66T203 323T125 705Q125 921 205 1087T433 1347T776 1440Q1018 1440 1194 1317L1169 1171Q993 1313 774 1313Q540 1313 405 1148T270 707Q270 429 407 265T791
100Q966 100 1114 190V612H774L754 741H1253V117Z" />
<glyph unicode="H" glyph-name="H" horiz-adv-x="1443" d="M1255 0H1114V676H330V0H188V1413H330V803H1114V1413H1255V0Z" />
<glyph unicode="I" glyph-name="I" horiz-adv-x="548" d="M344 0H203V1413H344V0Z" />
<glyph unicode="J" glyph-name="J" horiz-adv-x="745" d="M565 344Q565 167 467 78T201 -12Q146 -12 76 0L55 131Q127 111 203 111Q309 111 366 169T424 346V1413H565V344Z" />
<glyph unicode="K" glyph-name="K" horiz-adv-x="1241" d="M1206 18L1047 -14L330 729V0H188V1413H330V770L985 1413H1167L487 754L1206 18Z" />
<glyph unicode="L" glyph-name="L" horiz-adv-x="954" d="M895 0H188V1413H330V131H874L895 0Z" />
<glyph unicode="M" glyph-name="M" horiz-adv-x="1857" d="M1702 0H1565L1473 1212L983 -8H870L381 1212L289 0H158L270 1413H444L930 180L1417 1413H1589L1702 0Z" />
<glyph unicode="N" glyph-name="N" horiz-adv-x="1443" d="M1255 0H1147L322 1190V0H188V1413H322L1122 260V1413H1255V0Z" />
<glyph unicode="O" glyph-name="O" horiz-adv-x="1525" d="M1401 923T1401 709T1321 328T1094 67T760 -27Q620 -27 502 27T301 176T172 408T125 705Q125 866 172 1002T302 1235T505 1386T764 1440Q952 1440 1097 1348T1321 1089ZM1255 705Q1255 977 1120 1145T762
1313T405 1146T270 709Q270 436 406 268T764 100T1120 267T1255 705Z" />
<glyph unicode="P" glyph-name="P" horiz-adv-x="1087" d="M1001 1016Q1001 813 866 705T506 596H330V0H188V1413H537Q755 1413 878 1309T1001 1016ZM858 1012Q858 1148 774 1218T528 1288H330V721H512Q677 721 767 794T858 1012Z" />
<glyph unicode="Q" glyph-name="Q" horiz-adv-x="1529" d="M1401 709Q1401 430 1269 241T913 2L1358 -164L1331 -297L588 -8Q125 170 125 705Q125 866 172 1002T302 1235T505 1386T764 1440Q952 1440 1097 1348T1321 1089T1401 709ZM1255 705Q1255 978 1120 1145T762
1313Q538 1313 404 1147T270 707T406 264T764 94Q987 94 1121 262T1255 705Z" />
<glyph unicode="R" glyph-name="R" horiz-adv-x="1161" d="M1114 16L967 -14L516 616H330V0H188V1413H547Q758 1413 879 1310T1001 1024Q1001 867 910 768T672 635L1114 16ZM858 1016Q858 1145 777 1216T539 1288H330V737H514Q674 737 766 810T858 1016Z" />
<glyph unicode="S" glyph-name="S" horiz-adv-x="1048" d="M938 373Q938 195 814 90T500 -16Q294 -16 125 72L145 215Q311 109 506 109Q634 109 715 177T797 362Q797 466 736 530T512 666Q303 757 223 842T143 1073Q143 1231 257 1330T549 1430Q733 1430 860 1356L840
1214Q705 1305 543 1305Q423 1305 354 1241T285 1081Q285 987 344 929T569 797Q772 708 855 616T938 373Z" />
<glyph unicode="T" glyph-name="T" horiz-adv-x="1185" d="M1126 1284H664V0H522V1284H68V1413H1108L1126 1284Z" />
<glyph unicode="U" glyph-name="U" horiz-adv-x="1394" d="M1229 539Q1229 281 1086 129T694 -23Q448 -23 307 127T166 528V1413H307V547Q307 344 406 224T696 104Q884 104 985 219T1087 539V1413H1229V539Z" />
<glyph unicode="V" glyph-name="V" horiz-adv-x="1392" d="M1313 1413L758 -8H629L80 1397L221 1427L696 174L1163 1413H1313Z" />
<glyph unicode="W" glyph-name="W" horiz-adv-x="2101" d="M2007 1413L1581 -4H1458L1049 1219L641 -4H522L98 1397L238 1427L590 217L979 1413H1124L1518 217L1864 1413H2007Z" />
<glyph unicode="X" glyph-name="X" horiz-adv-x="1300" d="M1221 18L1079 -12L647 637L229 0H74L569 735L123 1395L264 1423L649 840L1024 1413H1180L729 741L1221 18Z" />
<glyph unicode="Y" glyph-name="Y" horiz-adv-x="1286" d="M1219 1413L711 586V0H569V586L70 1399L215 1427L643 713L1059 1413H1219Z" />
<glyph unicode="Z" glyph-name="Z" horiz-adv-x="1224" d="M1126 0H106V102L942 1290H166L147 1413H1112V1311L279 123H1108L1126 0Z" />
<glyph unicode="[" glyph-name="bracketleft" horiz-adv-x="833" d="M721 -215H199V1413H711V1307H328V-109H705L721 -215Z" />
<glyph unicode="\" glyph-name="backslash" horiz-adv-x="1058" d="M1130 -229L1010 -256L43 1401L164 1425L1130 -229Z" />
<glyph unicode="]" glyph-name="bracketright" horiz-adv-x="833" d="M111 1413H633V-215H121V-109H504V1307H127L111 1413Z" />
<glyph unicode="^" glyph-name="asciicircum" horiz-adv-x="933" d="M739 1126H653L465 1296L276 1126H190L401 1423H528L739 1126Z" />
<glyph unicode="_" glyph-name="underscore" horiz-adv-x="954" d="M952 -215H2V-104H952V-215Z" />
<glyph unicode="`" glyph-name="grave" horiz-adv-x="933" d="M637 1126H545L266 1401L442 1440L637 1126Z" />
<glyph unicode="a" glyph-name="a" horiz-adv-x="1001" d="M852 0H750L727 129Q567 -20 385 -20Q255 -20 176 49T96 244Q96 413 242 501T719 621V684Q719 870 518 870Q361 870 184 784L166 905Q360 989 526 989Q852 989 852 690V0ZM719 240V514Q579 500 483 476T332
417T254 343T231 252Q231 175 278 135T406 94Q482 94 564 133T719 240Z" />
<glyph unicode="b" glyph-name="b" horiz-adv-x="1081" d="M981 512Q981 256 851 122T510 -12Q342 -12 158 51V1446L293 1470V842Q426 989 592 989Q673 989 742 960T865 873T950 723T981 512ZM844 506Q844 678 770 773T578 868Q436 868 293 700V143Q392 104 516
104Q667 104 755 204T844 506Z" />
<glyph unicode="c" glyph-name="c" horiz-adv-x="952" d="M864 88Q725 -20 537 -20Q345 -20 222 115T98 483Q98 602 132 699T227 859T369 955T545 989Q721 989 856 891L834 756Q693 872 541 872Q405 872 321 770T236 485Q236 306 323 202T549 98Q712 98 846 213L864 88Z" />
<glyph unicode="d" glyph-name="d" horiz-adv-x="1087" d="M930 0H827L803 141Q668 -20 492 -20Q411 -20 341 9T217 96T131 245T100 457Q100 586 136 688T233 853T374 950T543 983Q688 983 795 934V1446L930 1470V0ZM795 274V809Q684 866 547 866T324 763T238
463Q238 291 311 196T504 100Q585 100 655 145T795 274Z" />
<glyph unicode="e" glyph-name="e" horiz-adv-x="1005" d="M905 117Q745 -20 535 -20Q338 -20 218 111T98 485Q98 715 214 852T514 989Q641 989 731 923T864 749T907 504V475H233Q237 295 317 196T543 96Q716 96 885 240L905 117ZM512 881Q404 881 331 803T238
582H768Q759 718 693 799T512 881Z" />
<glyph unicode="f" glyph-name="f" horiz-adv-x="610" d="M575 1333Q539 1341 494 1341Q346 1341 346 1192V969H545L563 854H346V0H213V854H66V969H213V1202Q213 1332 285 1397T485 1462Q515 1462 555 1458L575 1333Z" />
<glyph unicode="g" glyph-name="g" horiz-adv-x="1028" d="M950 -78Q950 -168 887 -235T720 -335T489 -369Q294 -369 171 -304T47 -117Q47 28 268 139Q197 184 197 242Q197 312 293 371Q211 412 163 487T115 659Q115 807 220 898T473 989Q619 989 719 907L961
985L983 852L788 831Q840 754 840 659Q840 511 734 421T477 330Q430 330 391 338Q330 304 330 268Q330 239 371 223T547 182L618 168Q788 137 869 82T950 -78ZM494 72Q378 95 375 96Q180 7 180 -109Q180 -183 266 -224T498 -266Q642 -266 731 -217T821 -94Q821
-37 769 -3T588 55L494 72ZM707 659Q707 757 642 823T473 889Q372 889 310 823T248 655Q248 559 311 495T477 430Q581 430 644 494T707 659Z" />
<glyph unicode="h" glyph-name="h" horiz-adv-x="1071" d="M922 0H786V668Q786 764 741 816T606 868Q463 868 293 700V0H158V1446L293 1470V831Q471 989 633 989Q775 989 848 912T922 694V0Z" />
<glyph unicode="i" glyph-name="i" horiz-adv-x="479" d="M336 1298Q336 1258 308 1229T240 1200T171 1229T141 1298T170 1367T240 1397T308 1368T336 1298ZM305 0H172V969H305V0Z" />
<glyph unicode="j" glyph-name="j" horiz-adv-x="479" d="M336 1298Q336 1258 308 1229T240 1200T171 1229T141 1298T170 1367T240 1397T308 1368T336 1298ZM305 -150Q305 -260 246 -314T86 -369Q32 -369 8 -362L-12 -242Q20 -250 68 -250Q172 -250 172 -135V969H305V-150Z"
/>
<glyph unicode="k" glyph-name="k" horiz-adv-x="954" d="M922 12L774 -14L293 514V0H158V1446L293 1470V553L715 969H889L436 537L922 12Z" />
<glyph unicode="l" glyph-name="l" horiz-adv-x="479" d="M305 0H172V1446L305 1470V0Z" />
<glyph unicode="m" glyph-name="m" horiz-adv-x="1677" d="M1528 0H1393V668Q1393 868 1217 868Q1078 868 909 702V0H776V668Q776 868 600 868Q459 868 293 705V0H158V969H262L285 829Q464 989 627 989Q838 989 893 821Q1077 989 1245 989Q1387 989 1457 913T1528 694V0Z" />
<glyph unicode="n" glyph-name="n" horiz-adv-x="1071" d="M922 0H786V668Q786 764 741 816T606 868Q463 868 293 700V0H158V969H262L285 825Q468 989 633 989Q775 989 848 912T922 692V0Z" />
<glyph unicode="o" glyph-name="o" horiz-adv-x="1071" d="M973 483Q973 250 849 115T532 -20Q342 -20 220 114T98 483Q98 718 221 853T532 989Q726 989 849 854T973 483ZM834 483Q834 661 752 767T532 874Q396 874 316 770T236 483Q236 307 317 201T532 94Q670
94 752 198T834 483Z" />
<glyph unicode="p" glyph-name="p" horiz-adv-x="1087" d="M987 512Q987 383 952 282T854 117T714 21T545 -12Q405 -12 293 35V-352L158 -375V969H262L285 829Q425 989 598 989Q679 989 748 960T871 873T956 723T987 512ZM850 506Q850 678 776 773T584 868Q502
868 433 824T293 694V160Q412 102 541 102Q678 102 764 206T850 506Z" />
<glyph unicode="q" glyph-name="q" horiz-adv-x="1081" d="M924 -352L788 -375V127Q655 -20 489 -20Q409 -20 340 9T216 96T131 245T100 457Q100 713 230 848T571 983Q722 983 924 920V-352ZM788 270V825Q679 866 565 866Q415 866 327 765T238 463Q238 291 311
196T504 100Q647 100 788 270Z" />
<glyph unicode="r" glyph-name="r" horiz-adv-x="704" d="M655 862Q541 855 443 783T293 608V0H158V969H258L289 770Q350 864 436 925T633 989L655 862Z" />
<glyph unicode="s" glyph-name="s" horiz-adv-x="897" d="M801 262Q801 130 705 56T440 -18Q348 -18 254 7T92 70L115 201Q278 96 453 96Q555 96 613 137T672 252Q672 324 619 364T422 442Q256 485 186 547T115 727Q115 842 205 915T444 989Q602 989 745 924L723
795Q583 870 440 870Q344 870 294 833T244 733Q244 673 291 637T461 569Q641 521 721 454T801 262Z" />
<glyph unicode="t" glyph-name="t" horiz-adv-x="675" d="M592 0Q534 -16 457 -16Q336 -16 271 39T205 221V854H55V969H205V1305L338 1327V969H561L580 854H338V244Q338 169 371 136T481 102Q510 102 571 113L592 0Z" />
<glyph unicode="u" glyph-name="u" horiz-adv-x="1071" d="M913 0H809L786 143Q602 -20 438 -20Q295 -20 223 57T150 276V969H285V301Q285 205 330 154T465 102Q609 102 778 268V969H913V0Z" />
<glyph unicode="v" glyph-name="v" horiz-adv-x="960" d="M901 969L543 -8H414L61 956L199 981L481 158L760 969H901Z" />
<glyph unicode="w" glyph-name="w" horiz-adv-x="1490" d="M1425 969L1104 -8H985L743 786L504 -8H387L66 961L197 985L446 172L688 973H805L1049 172L1288 969H1425Z" />
<glyph unicode="x" glyph-name="x" horiz-adv-x="962" d="M891 10L756 -14L479 403L217 0H72L408 498L92 958L225 985L481 596L727 969H872L553 502L891 10Z" />
<glyph unicode="y" glyph-name="y" horiz-adv-x="983" d="M922 969L510 -127Q461 -262 393 -315T219 -369Q193 -369 160 -362L139 -242Q185 -250 217 -250Q281 -250 320 -218T389 -106L430 -6L63 956L197 981L496 158L780 969H922Z" />
<glyph unicode="z" glyph-name="z" horiz-adv-x="919" d="M834 0H84V104L662 856H133L115 969H817V864L240 113H815L834 0Z" />
<glyph unicode="{" glyph-name="braceleft" horiz-adv-x="960" d="M850 -215H651Q358 -215 358 51Q358 97 370 191T383 336Q383 547 166 547H106L90 651H168Q270 651 326 699T383 860Q383 910 371 1003T358 1143Q358 1413 651 1413H838V1307H655Q570 1307 529
1265T487 1145Q487 1104 500 1006T514 862Q514 743 461 684T307 600V596Q408 572 461 513T514 334Q514 288 501 189T487 49Q487 -109 653 -109H831L850 -215Z" />
<glyph unicode="|" glyph-name="bar" horiz-adv-x="546" d="M334 -367L213 -387V1460L334 1481V-367Z" />
<glyph unicode="}" glyph-name="braceright" horiz-adv-x="960" d="M111 1413H309Q602 1413 602 1147Q602 1101 590 1007T578 862Q578 651 793 651H854L870 547H793Q691 547 635 499T578 336Q578 287 590 194T602 53Q602 -215 309 -215H121V-109H305Q390 -109
431 -67T473 51Q473 92 460 190T446 334Q446 453 499 513T653 596V600Q552 626 499 685T446 864Q446 910 459 1009T473 1149Q473 1307 307 1307H129L111 1413Z" />
<glyph unicode="~" glyph-name="asciitilde" horiz-adv-x="835" d="M721 672Q705 570 665 517T565 463Q526 463 495 474T412 514Q354 545 328 556T281 567Q229 567 207 459L115 477Q130 581 170 634T270 688Q309 688 338 677T424 635Q513 590 537 586Q547 584
557 584Q605 584 631 692L721 672Z" />
</font>
</defs>
</svg>
